<svg width="21" height="18" viewBox="0 0 21 18" fill="none" xmlns="http://www.w3.org/2000/svg">
<path d="M10.0138 2.14238L10.0138 2.14244L10.0204 2.14869L10.1569 2.27747L10.5 2.60118L10.8431 2.27747L10.9796 2.14869L10.9797 2.14875L10.9862 2.14238C12.0552 1.09641 13.4891 0.507409 14.9847 0.5C16.4456 0.500314 17.8469 1.08016 18.8809 2.11234C19.9151 3.1448 20.4974 4.54548 20.5 6.00688C20.4999 7.54046 20.2245 8.62522 19.3401 9.83628C18.4269 11.0869 16.8584 12.481 14.2027 14.5793C14.2022 14.5797 14.2016 14.5802 14.201 14.5806L11.481 16.6919C10.9037 17.14 10.0963 17.14 9.51897 16.6919L6.79897 14.5806C6.79839 14.5802 6.79781 14.5797 6.79723 14.5793C4.14158 12.481 2.57314 11.0869 1.65985 9.83628C0.775369 8.62511 0.500052 7.54024 0.5 6.00643C0.502665 4.5452 1.08498 3.1447 2.11914 2.11234C3.15313 1.08016 4.55434 0.500314 6.01531 0.5C7.51084 0.507409 8.94485 1.09641 10.0138 2.14238ZM2.87123 8.95166L2.46744 9.24654C3.28845 10.3708 4.74928 11.6865 7.41213 13.7907L7.41212 13.7907L7.41556 13.7933L10.1321 15.9018L10.1323 15.9019C10.3487 16.0698 10.6513 16.0698 10.8677 15.9019L10.8679 15.9018L13.5844 13.7933L13.5844 13.7934L13.5878 13.7907C16.2507 11.6865 17.7115 10.3708 18.5325 9.24652C18.8885 8.75907 19.1366 8.29253 19.2916 7.7627C19.4453 7.23744 19.4999 6.67513 19.5 6.00717L19.5 6.00595C19.4972 4.81044 19.0205 3.66475 18.1744 2.82007C17.3288 1.97601 16.1833 1.50141 14.9888 1.49999L14.9852 1.50001C14.7774 1.50124 14.5711 1.51604 14.3673 1.54395L14.3672 1.54396C12.9514 1.73795 11.8721 2.75742 10.9858 3.59451C10.9686 3.61078 10.9514 3.62699 10.9344 3.64311L10.9339 3.64352L10.8775 3.6968L10.8774 3.69688C10.6656 3.89683 10.3346 3.89688 10.1226 3.69704C10.1226 3.69699 10.1225 3.69694 10.1225 3.69688L10.0657 3.64331C10.0656 3.64327 10.0656 3.64322 10.0655 3.64317C10.0655 3.64313 10.0654 3.64308 10.0654 3.64303C10.0485 3.62712 10.0316 3.61112 10.0146 3.59506C9.12815 2.75769 8.04837 1.73768 6.63193 1.54386C6.42842 1.51601 6.22227 1.50123 6.0147 1.50001L6.0147 1.5L6.01118 1.5C4.81662 1.50141 3.67116 1.97602 2.82564 2.82007C1.97929 3.66494 1.50258 4.81096 1.5 6.00677L1.5 6.00793C1.5001 6.67568 1.5548 7.23783 1.70844 7.76296C1.86343 8.29267 2.11151 8.75914 2.46744 9.24653L2.87123 8.95166Z" fill="#33BBFF" stroke="#33BBFF"/>
</svg>
