<svg width="21" height="18" viewBox="0 0 21 18" fill="none" xmlns="http://www.w3.org/2000/svg">
<mask id="path-1-inside-1_1205_10758" fill="white">
<path fill-rule="evenodd" clip-rule="evenodd" d="M14.9835 3.8147e-05C16.5773 3.8147e-05 18.1061 0.632478 19.2341 1.75852C20.3621 2.88456 20.9972 4.41219 21 6.00604C21 9.24 19.8135 10.7835 14.511 14.973L11.7876 17.0869C11.0299 17.675 9.9701 17.675 9.2124 17.0869L6.489 14.973C1.1865 10.7835 0 9.24 0 6.00604C0.00278 4.41219 0.63789 2.88456 1.7659 1.75852C2.89391 0.632478 4.42264 3.8147e-05 6.0165 3.8147e-05C7.64236 0.00775815 9.2014 0.647938 10.3635 1.78504L10.5 1.91382L10.6365 1.78504C11.7986 0.647938 13.3576 0.00775815 14.9835 3.8147e-05Z"/>
</mask>
<path fill-rule="evenodd" clip-rule="evenodd" d="M14.9835 3.8147e-05C16.5773 3.8147e-05 18.1061 0.632478 19.2341 1.75852C20.3621 2.88456 20.9972 4.41219 21 6.00604C21 9.24 19.8135 10.7835 14.511 14.973L11.7876 17.0869C11.0299 17.675 9.9701 17.675 9.2124 17.0869L6.489 14.973C1.1865 10.7835 0 9.24 0 6.00604C0.00278 4.41219 0.63789 2.88456 1.7659 1.75852C2.89391 0.632478 4.42264 3.8147e-05 6.0165 3.8147e-05C7.64236 0.00775815 9.2014 0.647938 10.3635 1.78504L10.5 1.91382L10.6365 1.78504C11.7986 0.647938 13.3576 0.00775815 14.9835 3.8147e-05Z" fill="#33BBFF"/>
<path d="M14.9835 3.8147e-05V-1000H12.6094L10.2354 -999.989L14.9835 3.8147e-05ZM21 6.00604H1021V5.12766L1021 4.24929L21 6.00604ZM14.511 14.973L627.674 804.929L631.077 802.288L634.458 799.617L14.511 14.973ZM11.7876 17.0869L624.934 807.056L624.942 807.05L624.951 807.043L11.7876 17.0869ZM9.2124 17.0869L-603.951 807.043L-603.942 807.05L-603.934 807.056L9.2124 17.0869ZM6.489 14.973L-613.458 799.617L-610.077 802.288L-606.674 804.929L6.489 14.973ZM0 6.00604L-999.998 4.26184L-1000 5.13394V6.00604H0ZM6.0165 3.8147e-05L10.7647 -999.989L8.39061 -1000H6.0165V3.8147e-05ZM10.3635 1.78504L-689.013 716.538L-682.501 722.91L-675.874 729.163L10.3635 1.78504ZM10.5 1.91382L-675.737 729.292L10.5 1376.72L696.737 729.292L10.5 1.91382ZM10.6365 1.78504L696.874 729.163L703.501 722.91L710.013 716.538L10.6365 1.78504ZM14.9835 1000C-248.329 1000 -500.893 895.521 -687.258 709.48L725.726 -705.963C537.105 -894.256 281.483 -1000 14.9835 -1000V1000ZM-687.258 709.48C-873.617 523.444 -978.536 271.07 -978.998 7.76279L1021 4.24929C1020.53 -262.245 914.341 -517.675 725.726 -705.963L-687.258 709.48ZM-979 6.00604C-979 -53.5585 -973.766 -153.627 -939.212 -272.011C-903.05 -395.903 -847.004 -498.605 -787.838 -579.624C-734.463 -652.713 -682.768 -702.189 -657.444 -725.37C-631.465 -749.15 -610.215 -765.895 -605.436 -769.671L634.458 799.617C641.889 793.746 665.275 775.238 692.968 749.888C720.005 725.139 772.992 674.289 827.326 599.886C978.026 393.526 1021 173.512 1021 6.00604H-979ZM-598.652 -774.983L-601.376 -772.869L624.951 807.043L627.674 804.929L-598.652 -774.983ZM-601.359 -772.882C-241.316 -1052.34 262.316 -1052.34 622.359 -772.882L-603.934 807.056C-242.375 1087.69 263.375 1087.69 624.934 807.056L-601.359 -772.882ZM622.376 -772.869L619.652 -774.983L-606.674 804.929L-603.951 807.043L622.376 -772.869ZM626.436 -769.671C631.215 -765.895 652.465 -749.15 678.444 -725.37C703.768 -702.189 755.463 -652.713 808.838 -579.624C868.004 -498.605 924.05 -395.903 960.212 -272.011C994.766 -153.627 1000 -53.5585 1000 6.00604H-1000C-1000 173.512 -957.026 393.526 -806.326 599.886C-751.992 674.289 -699.005 725.139 -671.968 749.888C-644.275 775.238 -620.889 793.746 -613.458 799.617L626.436 -769.671ZM999.998 7.75024C999.539 271.071 894.613 523.45 708.254 709.483L-704.723 -705.966C-893.337 -517.681 -999.534 -262.247 -999.998 4.26184L999.998 7.75024ZM708.254 709.483C521.897 895.515 269.337 1000 6.0165 1000V-1000C-260.491 -1000 -516.109 -894.25 -704.723 -705.966L708.254 709.483ZM1.2683 999.989C-256.907 998.763 -504.474 897.107 -689.013 716.538L709.74 -712.968C522.877 -895.811 272.191 -998.747 10.7647 -999.989L1.2683 999.989ZM-675.874 729.163L-675.737 729.292L696.737 -725.464L696.601 -725.593L-675.874 729.163ZM696.737 729.292L696.874 729.163L-675.601 -725.593L-675.737 -725.464L696.737 729.292ZM710.013 716.538C525.477 897.105 277.91 998.763 19.7316 999.989L10.2354 -999.989C-251.195 -998.747 -501.88 -895.809 -688.74 -712.968L710.013 716.538Z" fill="#33BBFF" mask="url(#path-1-inside-1_1205_10758)"/>
</svg>
